<svg height="800px" width="800px" version="1.1" id="Layer_1" xmlns="http://www.w3.org/2000/svg" xmlns:xlink="http://www.w3.org/1999/xlink" viewBox="0 0 512 512" xml:space="preserve">
  <g id="SVGRepo_bgCarrier" stroke-width="0"/>
  <g id="SVGRepo_tracerCarrier" stroke-linecap="round" stroke-linejoin="round"/>
  <g id="SVGRepo_iconCarrier">
    <g>
      <g>
        <g>
          <path fill="#FFFFFF" d="M432.159,257.008h-28.086c1.68-3.593,2.625-7.594,2.625-11.815v-4.422c0-13.417-9.491-24.653-22.111-27.36v-46.133 c0-15.428-12.554-27.981-27.983-27.981h-5.577L413.34,11.63c1.223-2.506,1.068-5.465-0.409-7.83 C411.455,1.437,408.864,0,406.075,0H303.78h-95.56H105.924c-2.789,0-5.379,1.437-6.857,3.801 c-1.477,2.364-1.632,5.323-0.409,7.83l62.313,127.667h-5.577c-15.429,0-27.983,12.553-27.983,27.981v46.133 c-12.62,2.708-22.111,13.944-22.111,27.36v4.422c0,4.221,0.944,8.222,2.625,11.815H79.841c-4.466,0-8.084,3.619-8.084,8.084 v77.469c0,1.08,0.216,2.148,0.636,3.143l68.095,161.354c1.264,2.994,4.198,4.941,7.448,4.941h216.129 c3.251,0,6.184-1.947,7.448-4.941l68.095-161.354c0.42-0.995,0.636-2.063,0.636-3.143v-77.469 C440.243,260.626,436.624,257.008,432.159,257.008z M310.705,16.168h82.43l-60.098,123.129h-41.464L310.705,16.168z M294.342,16.168l-19.133,123.129h-38.417L217.658,16.168H294.342z M118.865,16.168h82.43l19.134,123.129h-41.466L118.865,16.168 z M143.58,167.278c0-6.514,5.3-11.813,11.815-11.813h18.519h55.952h52.268h55.951h18.519c6.515,0,11.815,5.299,11.815,11.813 v45.508H143.58V167.278z M358.701,495.832H153.299L87.925,340.925v-67.75h222.846c4.466,0,8.084-3.618,8.084-8.084 c0-4.466-3.619-8.084-8.084-8.084H133.286c-6.516,0-11.817-5.3-11.817-11.815v-4.422c0-6.516,5.301-11.817,11.817-11.817h2.21 h240.359c0.142,0.01,0.286,0.016,0.43,0.021c0.073,0.002,0.147,0.003,0.219,0.003c0.16,0,0.318-0.014,0.476-0.023h1.733 c6.516,0,11.817,5.301,11.817,11.817v4.422c0,6.515-5.301,11.815-11.817,11.815h-40.311c-4.465,0-8.084,3.619-8.084,8.084 s3.62,8.084,8.084,8.084h85.672v67.749h0.001L358.701,495.832z"/>
          <path fill="#FFFFFF" d="M256,353.403c-22.441,0-40.698,18.256-40.698,40.696c0,22.442,18.257,40.7,40.698,40.7s40.698-18.257,40.698-40.7 C296.698,371.659,278.441,353.403,256,353.403z M256,418.631c-13.525,0-24.53-11.005-24.53-24.532 c0-13.524,11.004-24.527,24.53-24.527s24.53,11.003,24.53,24.527C280.53,407.625,269.525,418.631,256,418.631z"/>
        </g>
      </g>
    </g>
  </g>
</svg>
